<svg width="16" height="16" viewBox="0 0 16 16" fill="none" xmlns="http://www.w3.org/2000/svg">
<path fill-rule="evenodd" clip-rule="evenodd" d="M8 0C12.4183 0 16 3.58172 16 8C16 12.4183 12.4183 16 8 16C3.58172 16 0 12.4183 0 8C0 3.58172 3.58172 0 8 0ZM9.00667 12C9.00667 12.5523 8.55895 13 8.00667 13C7.45438 13 7.00667 12.5523 7.00667 12V7.99999C7.00667 7.44771 7.45438 6.99999 8.00667 6.99999C8.55895 6.99999 9.00667 7.44771 9.00667 7.99999V12ZM8 4.66667C7.44772 4.66667 7 4.21895 7 3.66667C7 3.11438 7.44772 2.66667 8 2.66667H8.00667C8.55895 2.66667 9.00667 3.11438 9.00667 3.66667C9.00667 4.21895 8.55895 4.66667 8.00667 4.66667H8Z" fill="#F4F6FA"/>
</svg>
