<svg width="42" height="42" viewBox="0 0 42 42" fill="none" xmlns="http://www.w3.org/2000/svg">
<path d="M22.8691 28.2232C22.6601 28.1464 22.4329 28.1334 22.2165 28.1857C22 28.238 21.8039 28.3533 21.653 28.5171C21.5021 28.6809 21.4031 28.8857 21.3686 29.1058C21.3341 29.3258 21.3657 29.5511 21.4593 29.7532C21.5528 29.9553 21.7043 30.1251 21.8943 30.2411C22.0844 30.3572 22.3047 30.4142 22.5272 30.4051C22.7497 30.3959 22.9645 30.321 23.1445 30.1898C23.3244 30.0585 23.4614 29.8769 23.538 29.6678C23.5895 29.5291 23.613 29.3815 23.6072 29.2337C23.6014 29.0858 23.5665 28.9405 23.5043 28.8063C23.4421 28.672 23.354 28.5513 23.245 28.4513C23.136 28.3512 23.0082 28.2737 22.8691 28.2232ZM18.9761 22.84C19.2206 22.9297 19.4886 22.9319 19.7345 22.8461C19.9803 22.7604 20.1889 22.592 20.3245 22.3698C20.4602 22.1475 20.5146 21.8851 20.4785 21.6272C20.4423 21.3693 20.3179 21.132 20.1264 20.9555C19.9349 20.7791 19.6881 20.6746 19.4281 20.6597C19.1682 20.6448 18.9111 20.7205 18.7007 20.8739C18.4903 21.0273 18.3396 21.249 18.2743 21.501C18.2089 21.7531 18.233 22.02 18.3425 22.2563C18.4044 22.3906 18.4922 22.5113 18.601 22.6114C18.7097 22.7116 18.8372 22.7893 18.9761 22.84Z" fill="url(#paint0_linear_28_276)"/>
<path d="M34.9261 19.9592L32.6799 9.07592C32.5976 8.66978 32.3896 8.29984 32.0853 8.0185C31.781 7.73717 31.396 7.5587 30.9846 7.5084C31.0436 6.59503 30.9745 5.6779 30.7795 4.78365C30.4293 3.34482 29.7526 2.926 29.2464 2.82803C28.9965 2.78898 28.7409 2.80662 28.4987 2.87962C28.2564 2.95262 28.0337 3.07913 27.8469 3.2498C27.4198 3.61488 27.0607 4.05276 26.7863 4.54314C26.0528 5.86405 25.5445 7.29798 25.2824 8.78599C24.9703 10.2643 24.9067 11.7844 25.0942 13.2836C25.1658 13.8409 25.3355 14.3811 25.5955 14.8793C25.7051 15.1073 25.8646 15.3078 26.0621 15.4659C26.2596 15.6241 26.4901 15.7358 26.7365 15.7929C26.8252 15.8102 26.9153 15.819 27.0056 15.8192C27.7766 15.8192 28.5555 15.185 29.2449 13.9958C29.4348 14.3366 29.5392 14.7185 29.549 15.1086C29.5588 15.4986 29.4737 15.8852 29.3012 16.2352C29.1287 16.5852 28.8738 16.8881 28.5584 17.1178C28.243 17.3476 27.8766 17.4974 27.4906 17.5543C27.1046 17.6113 26.7105 17.5737 26.3422 17.4448C25.9739 17.3158 25.6424 17.0995 25.3762 16.8142C25.1099 16.529 24.9169 16.1834 24.8137 15.8071C24.7104 15.4308 24.7 15.0351 24.7834 14.6539C24.6312 14.2428 24.5224 13.8169 24.4588 13.3832C24.2686 11.9025 24.3165 10.401 24.6006 8.93548L19.4728 10.1878C18.4676 10.4843 17.5928 11.1131 16.9914 11.9714L7.3246 27.258C7.03786 27.7136 6.94329 28.2642 7.06159 28.7894C7.17988 29.3146 7.5014 29.7715 7.95578 30.0602L21.9092 38.8839C22.3647 39.1709 22.9154 39.2656 23.4407 39.1473C23.966 39.029 24.4229 38.7073 24.7114 38.2527L34.3785 22.9656C34.896 22.0543 35.0891 20.9944 34.9261 19.9592ZM17.0995 20.9522C17.2638 20.504 17.5573 20.1145 17.943 19.8331C18.3287 19.5518 18.7891 19.3911 19.2661 19.3714C19.7431 19.3518 20.2152 19.4741 20.6227 19.7228C21.0302 19.9715 21.3548 20.3355 21.5553 20.7687C21.7559 21.2019 21.8235 21.6849 21.7496 22.1565C21.6756 22.6282 21.4634 23.0673 21.1399 23.4183C20.8163 23.7693 20.3959 24.0165 19.9319 24.1286C19.4678 24.2406 18.9809 24.2125 18.5328 24.0478C17.9323 23.8274 17.4439 23.3774 17.1751 22.7969C16.9063 22.2163 16.8791 21.5528 17.0995 20.9522ZM24.7458 30.111C24.6369 30.4085 24.4703 30.6817 24.2557 30.9148C24.0411 31.1479 23.7827 31.3364 23.4952 31.4695C23.2077 31.6026 22.8967 31.6778 22.5801 31.6906C22.2636 31.7035 21.9476 31.6538 21.6502 31.5444C21.3528 31.4353 21.0799 31.2686 20.8469 31.054C20.6139 30.8394 20.4255 30.581 20.2924 30.2935C20.1593 30.0061 20.0841 29.6952 20.0711 29.3787C20.0582 29.0622 20.1077 28.7463 20.2168 28.4489C20.3257 28.1512 20.4922 27.8779 20.7068 27.6445C20.9214 27.4112 21.1799 27.2225 21.4675 27.0891C21.755 26.9558 22.0661 26.8804 22.3828 26.8674C22.6995 26.8543 23.0157 26.9038 23.3133 27.013C23.6109 27.1222 23.884 27.289 24.1171 27.5039C24.3502 27.7187 24.5386 27.9774 24.6717 28.2651C24.8047 28.5528 24.8797 28.8639 24.8925 29.1807C24.9052 29.4974 24.8553 29.8136 24.7458 30.111ZM27.0764 23.2138L15.4659 28.5902C15.3111 28.6619 15.1341 28.6692 14.974 28.6104C14.8138 28.5516 14.6836 28.4316 14.6119 28.2768C14.5402 28.122 14.533 27.945 14.5918 27.7849C14.6505 27.6247 14.7705 27.4944 14.9254 27.4228L26.5358 22.0467C26.6124 22.0112 26.6953 21.9912 26.7797 21.9877C26.8641 21.9842 26.9484 21.9974 27.0277 22.0265C27.107 22.0556 27.1798 22.1001 27.2419 22.1573C27.3041 22.2145 27.3543 22.2834 27.3898 22.3601C27.4253 22.4367 27.4454 22.5196 27.4488 22.604C27.4523 22.6884 27.4391 22.7727 27.41 22.852C27.3809 22.9313 27.3364 23.0041 27.2792 23.0662C27.222 23.1284 27.1531 23.1786 27.0764 23.2141V23.2138ZM29.7916 7.66728L27.2637 8.28461C27.1942 8.56024 27.1313 8.84302 27.075 9.13295C26.8236 10.3293 26.7535 11.5567 26.867 12.7739C27.3957 12.7133 27.9295 12.8301 28.3845 13.1059C27.7604 14.305 27.1934 14.6766 26.9614 14.6316C26.7331 14.5874 26.4171 14.0896 26.2628 13.101C26.0961 11.7369 26.1572 10.3547 26.4435 9.01069C26.6794 7.65688 27.1386 6.35168 27.8023 5.14839C28.3142 4.28871 28.7932 3.94496 29.0217 3.98906C29.3768 4.05777 29.9465 5.24027 29.7916 7.66728Z" fill="url(#paint1_linear_28_276)"/>
<defs>
<linearGradient id="paint0_linear_28_276" x1="18.2964" y1="21.2408" x2="23.3544" y2="21.5423" gradientUnits="userSpaceOnUse">
<stop stop-color="#1756CF"/>
<stop offset="1" stop-color="#174BCF"/>
</linearGradient>
<linearGradient id="paint1_linear_28_276" x1="7.31442" y1="4.98389" x2="33.573" y2="7.16814" gradientUnits="userSpaceOnUse">
<stop stop-color="#1756CF"/>
<stop offset="1" stop-color="#174BCF"/>
</linearGradient>
</defs>
</svg>
