<svg width="14" height="14" viewBox="0 0 14 14" fill="none" xmlns="http://www.w3.org/2000/svg">
<path d="M7 0.5C3.416 0.5 0.5 3.416 0.5 7C0.5 10.584 3.416 13.5 7 13.5C10.584 13.5 13.5 10.584 13.5 7C13.5 3.416 10.584 0.5 7 0.5ZM7 1.5C7.169 1.5 7.335 1.51039 7.5 1.52539V2H8.5V1.71289C9.729 2.06239 10.783 2.82716 11.5 3.84766V5.5L12 6.5V7H12.5C12.5 7.183 12.4902 7.36447 12.4727 7.54297C12.4682 7.59097 12.4581 7.63707 12.4521 7.68457C12.4356 7.81607 12.4186 7.9467 12.3926 8.0752C12.3831 8.1232 12.3704 8.17027 12.3594 8.21777C12.3304 8.34477 12.2992 8.47123 12.2617 8.59473C12.2487 8.63723 12.2337 8.6787 12.2197 8.7207C12.1777 8.8477 12.133 8.97368 12.082 9.09668C12.067 9.13268 12.0507 9.16763 12.0352 9.20312C11.9792 9.33062 11.9205 9.45613 11.8555 9.57812C11.84 9.60763 11.8231 9.63654 11.8066 9.66504C11.7366 9.79104 11.6625 9.9132 11.583 10.0332C11.5675 10.0567 11.5512 10.081 11.5352 10.1045C11.4512 10.227 11.3621 10.3459 11.2686 10.4609C11.2531 10.4799 11.2391 10.4981 11.2236 10.5166C11.1266 10.6331 11.024 10.7445 10.918 10.8525C10.9025 10.868 10.8876 10.8849 10.8721 10.9004C10.7636 11.0079 10.6502 11.111 10.5332 11.209C10.5167 11.223 10.5024 11.2375 10.4854 11.251C10.3684 11.347 10.2456 11.4365 10.1211 11.5225C10.1016 11.536 10.084 11.5515 10.0645 11.5645C9.94495 11.645 9.82034 11.7181 9.69434 11.7891C9.10734 12.1186 8.45479 12.3454 7.75879 12.4404L9.76465 10.9287L10.3145 10.3789L11 9V8.5L10 8H9.5L8.5 7H7.5L7 7.5V8L6.5 8.5V9.5L7.5 10.2998L6.51172 12.4756C3.70722 12.2266 1.5 9.8675 1.5 7C1.5 5.296 2.2795 3.77074 3.5 2.76074V3L3 3.5V4.59961L3.5 6.5L6 7.5H6.5V7L5 6.5V5.5H6.5L7 4.25L8 3.5V3L6.5 2L5.78125 1.64062C6.17375 1.55163 6.5805 1.5 7 1.5ZM6.5 6V6.5H7.5V6H6.5Z" fill="#FAFAFC"/>
</svg>
