<svg width="42" height="42" viewBox="0 0 42 42" fill="none" xmlns="http://www.w3.org/2000/svg">
<path d="M33.7434 30.0704L31.3507 32.4631C31.0301 32.7736 30.7596 32.6328 30.2477 32.6328C28.8435 32.6328 27.5454 33.2777 26.6841 34.4061C25.738 35.6449 25.5175 37.329 26.1156 38.8054C26.4108 39.5014 27.2483 39.8109 27.9313 39.4162C27.6798 39.8444 27.7184 40.3717 27.9526 40.7228H18.5559V33.6254C25.0382 29.7186 22.8024 31.066 23.2861 30.7746L26.3958 32.5097C26.7337 32.6975 27.1344 32.3639 27.0024 31.9964L25.0297 26.4092C25.0085 26.3498 24.9745 26.2989 24.9322 26.2523L24.1261 25.4293H24.5928C28.3472 25.4293 31.6902 27.211 33.8241 29.9728C33.8029 30.0069 33.7732 30.0408 33.7434 30.0704ZM36.2634 37.1V40.2987C36.2634 40.5321 36.0725 40.723 35.8391 40.723H32.8695C34.3138 39.6397 34.8985 37.986 34.681 36.5358C34.6598 36.3576 34.7404 36.1498 34.8847 36.0014L36.0428 34.8432C36.187 35.5728 36.2634 36.3278 36.2634 37.1ZM12.8627 30.6857L9.65139 32.4759C9.31416 32.6632 8.91286 32.3341 9.04477 31.9668L11.0768 26.2058C11.0981 26.1464 11.132 26.0913 11.1744 26.0488L11.7829 25.4294H11.6707C5.23499 25.4294 0 30.6644 0 37.1V40.2987C0 40.5321 0.190887 40.723 0.424266 40.723H17.7074V33.6034C11.0683 29.6049 13.3581 30.984 12.8627 30.6857Z" fill="url(#paint0_linear_28_264)"/>
<path d="M11.888 26.5799C11.8155 26.6315 11.8248 26.6249 11.888 26.5799V26.5799ZM27.6303 10.5303V8.3159C27.6303 5.60074 25.7975 3.20814 23.1801 2.49545L19.2474 1.42642C18.522 1.22708 17.7541 1.22708 17.0244 1.42642L13.0877 2.49545C10.466 3.20814 8.63748 5.60091 8.63748 8.3159V10.5346C11.5689 9.00742 14.8228 8.20983 18.1318 8.20983C21.4408 8.20983 24.6988 9.00742 27.6303 10.5303Z" fill="url(#paint1_linear_28_264)"/>
<path d="M28.8223 12.7322C28.7969 12.3801 28.6018 12.0576 28.2964 11.8753C25.2249 10.0341 21.7081 9.05841 18.1318 9.05841C14.5597 9.05841 11.0471 10.0342 7.97573 11.8753C7.67033 12.0576 7.47518 12.3801 7.44967 12.7322C7.40939 13.3929 7.89969 13.7442 8.49737 14.0224C7.22564 15.1895 7.84292 17.2716 9.51562 17.5811L9.62169 18.3999C9.9526 20.9877 11.4289 23.1852 13.495 24.5174V25.4346C13.4603 25.4593 12.1629 26.3841 11.888 26.58L10.2633 31.1956L12.7111 29.8296C12.8396 29.7524 13.0009 29.7583 13.1353 29.8339C13.6208 30.127 11.4032 28.7881 17.7509 32.6206V32.4759C17.7107 32.4172 15.6607 29.4273 15.7911 29.6175C15.0949 28.6034 14.5994 27.4507 14.3436 26.2622V25.001C15.4932 25.5695 16.7829 25.8877 18.1319 25.8877C19.4598 25.8877 20.7579 25.5823 21.9246 25.0053V26.2527C21.6911 27.486 21.1941 28.6855 20.4758 29.727C20.4467 29.7694 18.407 32.7371 18.5369 32.548V32.6348C24.7054 28.9174 22.578 30.1996 23.0381 29.9222C23.1696 29.8415 23.3309 29.8373 23.4624 29.9137L25.8083 31.2203L24.2429 26.7786C24.2056 26.7443 22.9441 25.5866 22.7729 25.4296V24.526C24.8343 23.2165 26.3178 20.9761 26.6504 18.4L26.7522 17.5813C27.7152 17.4031 28.4449 16.5589 28.4449 15.545C28.4449 14.9422 28.1813 14.4023 27.7684 14.0224C28.3704 13.7515 28.8716 13.3881 28.8223 12.7322ZM26.3745 16.7666C26.1624 16.7666 25.9842 16.9277 25.9545 17.1399L25.806 18.2937C25.3107 22.1178 22.0657 25.0391 18.1317 25.0391C14.2257 25.0391 10.951 22.1071 10.4659 18.2937L10.3174 17.1399C10.2877 16.9277 10.1095 16.7666 9.89313 16.7666C9.21859 16.7666 8.66709 16.2193 8.66709 15.5448C8.66709 14.8575 9.20587 14.3187 9.89313 14.3187C9.89461 14.3187 9.89567 14.318 9.89707 14.318C10.3204 14.3056 10.7456 14.2115 11.1488 14.0219C15.5863 11.922 20.6812 11.922 25.1188 14.0219C25.4874 14.1946 25.8851 14.282 26.2852 14.3009C26.315 14.3074 26.3429 14.3187 26.3745 14.3187C27.0491 14.3187 27.5964 14.8703 27.5964 15.5448C27.5964 16.2192 27.0491 16.7666 26.3745 16.7666ZM40.9384 31.5299C40.1408 32.3275 39.0464 32.705 37.9179 32.5608C37.4809 32.5099 37.0142 32.6753 36.6791 33.0105L34.2864 35.4032C33.9513 35.7383 33.7859 36.2007 33.8409 36.6419C33.9838 37.6715 33.65 38.8235 32.8058 39.6625C31.7508 40.7175 30.1884 40.9985 28.8731 40.4473C28.5965 40.3402 28.5171 39.9717 28.7332 39.7557L29.8446 38.6485C30.1516 38.3414 30.1603 37.823 29.8446 37.5073C29.5392 37.2019 29.0089 37.2019 28.7034 37.5073L27.5919 38.6187C27.3855 38.8251 27.0199 38.7636 26.9004 38.4787C26.4168 37.2866 26.5907 35.9248 27.3586 34.9193C28.1519 33.88 29.3948 33.3539 30.6888 33.5067C31.1469 33.5619 31.6136 33.3964 31.9487 33.0612L34.3414 30.6685C34.6723 30.3376 34.8419 29.8667 34.7869 29.4127C34.63 28.1188 35.156 26.8758 36.1954 26.0825C37.2008 25.3147 38.5626 25.1407 39.7547 25.6244C40.0248 25.7289 40.1147 26.096 39.8947 26.3159L38.7833 27.4273C38.4717 27.7389 38.4712 28.2522 38.7833 28.5643C39.0887 28.8697 39.619 28.8697 39.9245 28.5643L41.036 27.457C41.2365 27.2479 41.6021 27.3036 41.7275 27.5928C42.2833 28.9506 41.9736 30.4947 40.9384 31.5299Z" fill="url(#paint2_linear_28_264)"/>
<defs>
<linearGradient id="paint0_linear_28_264" x1="0.392305" y1="26.3438" x2="32.554" y2="34.5965" gradientUnits="userSpaceOnUse">
<stop stop-color="#1756CF"/>
<stop offset="1" stop-color="#174BCF"/>
</linearGradient>
<linearGradient id="paint1_linear_28_264" x1="8.84295" y1="2.79221" x2="26.6792" y2="4.23899" gradientUnits="userSpaceOnUse">
<stop stop-color="#1756CF"/>
<stop offset="1" stop-color="#174BCF"/>
</linearGradient>
<linearGradient id="paint2_linear_28_264" x1="7.82115" y1="10.952" x2="40.0341" y2="14.7559" gradientUnits="userSpaceOnUse">
<stop stop-color="#1756CF"/>
<stop offset="1" stop-color="#174BCF"/>
</linearGradient>
</defs>
</svg>
