<svg width="42" height="42" viewBox="0 0 42 42" fill="none" xmlns="http://www.w3.org/2000/svg">
<path d="M40.5547 21C40.5547 20.398 40.8767 19.6 41.1846 18.816C41.7166 17.5 42.3185 16.002 41.8006 14.49C41.2826 12.95 39.8548 12.068 38.6089 11.284C37.8949 10.85 37.153 10.388 36.8031 9.94C36.4531 9.478 36.2291 8.694 36.0051 7.868C35.6132 6.496 35.1792 4.928 33.8353 3.99C32.5195 3.08 30.8676 3.164 29.3978 3.234C28.5299 3.276 27.6339 3.318 27.032 3.122C26.4721 2.954 25.8281 2.45 25.1562 1.932C23.9957 1.022 22.6798 0 21 0C19.3202 0 18.0043 1.022 16.8424 1.932C16.1705 2.45 15.5265 2.954 14.9666 3.122C14.3646 3.318 13.4687 3.276 12.6008 3.234C11.131 3.164 9.47913 3.08 8.16326 3.99C6.81939 4.928 6.38543 6.496 5.99347 7.868C5.76949 8.694 5.54552 9.478 5.19555 9.94C4.84558 10.388 4.10366 10.85 3.40373 11.284C2.14385 12.068 0.715989 12.95 0.198039 14.49C-0.31991 16.002 0.282031 17.5 0.813979 18.816C1.12195 19.6 1.44392 20.398 1.44392 21C1.44392 21.602 1.12195 22.4 0.813979 23.184C0.282031 24.5 -0.31991 25.998 0.198039 27.51C0.715989 29.05 2.14385 29.932 3.38973 30.716C4.10366 31.15 4.84558 31.612 5.19555 32.06C5.54552 32.522 5.76949 33.306 5.99347 34.132C6.38543 35.504 6.81939 37.072 8.16326 38.01C9.47913 38.92 11.131 38.836 12.6008 38.766C13.4687 38.724 14.3646 38.682 14.9666 38.878C15.5265 39.046 16.1705 39.55 16.8424 40.068C18.0043 40.978 19.3202 42 21 42C22.6798 42 23.9957 40.978 25.1576 40.068C25.8295 39.55 26.4735 39.046 27.0334 38.878C27.6353 38.682 28.5313 38.724 29.3992 38.766C30.869 38.836 32.5209 38.92 33.8367 38.01C35.1806 37.072 35.6146 35.504 36.0065 34.132C36.2305 33.306 36.4545 32.522 36.8045 32.06C37.1544 31.612 37.8963 31.15 38.5963 30.716C39.8562 29.932 41.284 29.05 41.802 27.51C42.3199 25.998 41.718 24.5 41.186 23.184C40.8767 22.4 40.5547 21.602 40.5547 21ZM15.4005 25.2C15.4005 25.816 14.9946 26.362 14.4066 26.544C14.2667 26.586 14.1407 26.6 14.0007 26.6C13.5387 26.6 13.1048 26.376 12.8388 25.97L9.8011 21.42V25.2C9.8011 25.97 9.17116 26.6 8.40124 26.6C7.63131 26.6 7.00137 25.97 7.00137 25.2V16.8C7.00137 16.184 7.40733 15.638 7.99528 15.456C8.58322 15.274 9.22715 15.512 9.56312 16.03L12.6008 20.58V16.8C12.6008 16.03 13.2308 15.4 14.0007 15.4C14.7706 15.4 15.4005 16.03 15.4005 16.8V25.2ZM22.3999 19.6C23.1698 19.6 23.7997 20.23 23.7997 21C23.7997 21.77 23.1698 22.4 22.3999 22.4H19.6001V23.8H22.3999C23.1698 23.8 23.7997 24.43 23.7997 25.2C23.7997 25.97 23.1698 26.6 22.3999 26.6H18.2003C17.4303 26.6 16.8004 25.97 16.8004 25.2V16.8C16.8004 16.03 17.4303 15.4 18.2003 15.4H22.3999C23.1698 15.4 23.7997 16.03 23.7997 16.8C23.7997 17.57 23.1698 18.2 22.3999 18.2H19.6001V19.6H22.3999ZM33.5834 25.424C33.4714 26.054 32.9674 26.53 32.3375 26.6H32.1975C31.6236 26.6 31.0916 26.236 30.8816 25.69L30.0977 23.59L29.3138 25.69C29.0898 26.292 28.4879 26.656 27.8579 26.6C27.228 26.53 26.724 26.054 26.6121 25.424L25.2122 17.024C25.0862 16.268 25.6041 15.54 26.3741 15.414C27.13 15.288 27.8579 15.806 27.9839 16.576L28.5159 19.824L28.7818 19.11C28.9918 18.564 29.5098 18.2 30.0977 18.2C30.6857 18.2 31.2036 18.564 31.4136 19.11L31.6796 19.824L32.2115 16.576C32.3375 15.806 33.0654 15.288 33.8213 15.414C34.5913 15.54 35.1092 16.268 34.9832 17.024L33.5834 25.424Z" fill="url(#paint0_linear_28_261)"/>
<defs>
<linearGradient id="paint0_linear_28_261" x1="0.454365" y1="2.51162" x2="39.6968" y2="6.75838" gradientUnits="userSpaceOnUse">
<stop stop-color="#1756CF"/>
<stop offset="1" stop-color="#174BCF"/>
</linearGradient>
</defs>
</svg>
