<svg width="23" height="23" viewBox="0 0 23 23" fill="none" xmlns="http://www.w3.org/2000/svg">
<path d="M19.6009 3.48487C17.5371 1.41931 14.7924 0.28119 11.8681 0.280029C5.84281 0.280029 0.938979 5.18199 0.936567 11.2073C0.935794 13.1333 1.43915 15.0134 2.39574 16.6705L0.84491 22.3334L6.63984 20.8138C8.23652 21.6844 10.0341 22.1432 11.8637 22.1439H11.8682C17.8929 22.1439 22.7972 17.2414 22.7996 11.216C22.8008 8.29607 21.6648 5.55044 19.6009 3.48487ZM11.8682 20.2983H11.8645C10.2342 20.2977 8.63509 19.8598 7.2401 19.0323L6.9083 18.8354L3.4695 19.7372L4.38739 16.3855L4.1713 16.0418C3.2618 14.5957 2.78146 12.9242 2.78217 11.208C2.78414 6.20005 6.86004 2.12569 11.8717 2.12569C14.2985 2.12661 16.5798 3.07267 18.2952 4.78946C20.0106 6.50625 20.9548 8.78835 20.9539 11.2153C20.9519 16.2237 16.8761 20.2983 11.8682 20.2983ZM16.852 13.4957C16.5788 13.359 15.2359 12.6984 14.9855 12.6073C14.7352 12.5161 14.5531 12.4706 14.371 12.744C14.1889 13.0173 13.6655 13.6324 13.5061 13.8146C13.3468 13.9968 13.1875 14.0196 12.9143 13.8829C12.6412 13.7463 11.7611 13.4579 10.7178 12.5277C9.90586 11.8038 9.35764 10.9095 9.19832 10.6361C9.039 10.3627 9.18138 10.215 9.31811 10.0788C9.44096 9.95651 9.59124 9.75992 9.72782 9.60048C9.86436 9.44107 9.90991 9.32711 10.0009 9.1449C10.092 8.96265 10.0465 8.80318 9.97817 8.66651C9.90991 8.52984 9.36362 7.18584 9.13601 6.63914C8.91432 6.1067 8.68909 6.17874 8.52144 6.17037C8.36229 6.16245 8.18002 6.16079 7.99795 6.16079C7.81589 6.16079 7.51996 6.22911 7.2696 6.50247C7.01925 6.77584 6.31364 7.43644 6.31364 8.78041C6.31364 10.1244 7.29234 11.4228 7.42892 11.605C7.5655 11.7873 9.35493 14.5453 12.0949 15.728C12.7466 16.0094 13.2554 16.1774 13.6521 16.3032C14.3064 16.511 14.9018 16.4817 15.3725 16.4114C15.8972 16.333 16.9884 15.7509 17.2161 15.1131C17.4437 14.4752 17.4437 13.9285 17.3754 13.8146C17.3071 13.7007 17.1251 13.6324 16.852 13.4957Z" fill="#F2F2F2"/>
</svg>
